<?xml version="1.0" encoding="UTF-8" standalone="no"?>


<svg xmlns="http://www.w3.org/2000/svg" width="143.77031mm" height="72.661629mm" viewBox="0 0 143.77031 72.661629" version="1.1" id="svg1" xml:space="preserve"><defs id="defs1"><linearGradient id="Adsız_degrade_222" data-name="Adsız degrade 222" x1="747.88" y1="297.73001" x2="748.53003" y2="297.73001" gradientUnits="userSpaceOnUse"><stop offset="0" stop-color="#07eefb" id="stop134"></stop><stop offset=".23" stop-color="#02f7fc" id="stop136"></stop><stop offset=".53" stop-color="#02f7fc" id="stop138"></stop><stop offset="1" stop-color="#02f7fc" id="stop140"></stop></linearGradient><linearGradient id="Adsız_degrade_223" data-name="Adsız degrade 223" x1="394.20999" y1="82.940002" x2="768.15997" y2="82.940002" gradientUnits="userSpaceOnUse"><stop offset="0" stop-color="#0bbdfa" id="stop143"></stop><stop offset=".23" stop-color="#11c6fa" id="stop145"></stop><stop offset=".48" stop-color="#0ecffa" id="stop147"></stop><stop offset=".77" stop-color="#06dffa" id="stop149"></stop><stop offset="1" stop-color="#02f7fc" id="stop151"></stop></linearGradient><linearGradient id="Adsız_degrade_208" data-name="Adsız degrade 208" x1="244.73" y1="436.57999" x2="730.35999" y2="436.57999" gradientUnits="userSpaceOnUse"><stop offset="0" stop-color="#13a7f9" id="stop154"></stop><stop offset=".14" stop-color="#0eb0f9" id="stop156"></stop><stop offset=".23" stop-color="#0bb9fa" id="stop158"></stop><stop offset=".49" stop-color="#12d0fa" id="stop160"></stop><stop offset=".98" stop-color="#02f7fc" id="stop162"></stop></linearGradient><linearGradient id="Adsız_degrade_52" data-name="Adsız degrade 52" x1="340.73001" y1="187.10001" x2="506.69" y2="187.10001" gradientUnits="userSpaceOnUse"><stop offset="0" stop-color="#0fb8fa" id="stop165"></stop><stop offset=".31" stop-color="#0dc1fa" id="stop167"></stop><stop offset=".44" stop-color="#0dc7fa" id="stop169"></stop><stop offset=".97" stop-color="#0dc7fa" id="stop171"></stop><stop offset=".99" stop-color="#04cffa" id="stop173"></stop></linearGradient><linearGradient id="Adsız_degrade_61" data-name="Adsız degrade 61" x1="526.81" y1="187.25" x2="606.79999" y2="187.25" gradientUnits="userSpaceOnUse"><stop offset="0" stop-color="#0dcdfa" id="stop176"></stop><stop offset=".57" stop-color="#0ad0fb" id="stop178"></stop><stop offset=".87" stop-color="#00d4fa" id="stop180"></stop><stop offset=".99" stop-color="#05d5fb" id="stop182"></stop></linearGradient><linearGradient id="Adsız_degrade_93" data-name="Adsız degrade 93" x1="522.21002" y1="249.13" x2="562.02002" y2="249.13" gradientUnits="userSpaceOnUse"><stop offset="0" stop-color="#04cdfa" id="stop185"></stop><stop offset=".63" stop-color="#04cdfa" id="stop187"></stop></linearGradient><linearGradient id="Adsız_degrade_110" data-name="Adsız degrade 110" x1="660.84998" y1="309.72" x2="709.53998" y2="309.72" gradientUnits="userSpaceOnUse"><stop offset="0" stop-color="#00e0fa" id="stop190"></stop><stop offset=".99" stop-color="#00defa" id="stop192"></stop></linearGradient><linearGradient id="Adsız_degrade_147" data-name="Adsız degrade 147" x1="606.65997" y1="377.04999" x2="655.35999" y2="377.04999" gradientUnits="userSpaceOnUse"><stop offset="0" stop-color="#05d9fa" id="stop195"></stop><stop offset=".44" stop-color="#00d8fb" id="stop197"></stop></linearGradient><linearGradient id="Adsız_degrade_82" data-name="Adsız degrade 82" x1="194.52" y1="186.88" x2="309.85999" y2="186.88" gradientUnits="userSpaceOnUse"><stop offset=".12" stop-color="#13a7f9" id="stop200"></stop><stop offset=".7" stop-color="#13acf9" id="stop202"></stop><stop offset=".89" stop-color="#10adfa" id="stop204"></stop><stop offset="1" stop-color="#0eb0fa" id="stop206"></stop></linearGradient><linearGradient id="Adsız_degrade_86" data-name="Adsız degrade 86" x1="33.16" y1="247.99001" x2="506.69" y2="247.99001" gradientUnits="userSpaceOnUse"><stop offset="0" stop-color="#1394fb" id="stop209"></stop><stop offset=".3" stop-color="#139dfa" id="stop211"></stop><stop offset=".57" stop-color="#13aaf9" id="stop213"></stop><stop offset=".87" stop-color="#0bbbfa" id="stop215"></stop><stop offset=".99" stop-color="#11c6fb" id="stop217"></stop></linearGradient><linearGradient id="Adsız_degrade_101" data-name="Adsız degrade 101" x1="91.769997" y1="309.84" x2="640.5" y2="309.84" gradientUnits="userSpaceOnUse"><stop offset="0" stop-color="#139cfa" id="stop220"></stop><stop offset=".28" stop-color="#13a5fa" id="stop222"></stop><stop offset=".57" stop-color="#14b4fa" id="stop224"></stop><stop offset=".87" stop-color="#0dc9fa" id="stop226"></stop><stop offset=".99" stop-color="#0ad8fb" id="stop228"></stop></linearGradient><linearGradient id="Adsız_degrade_226" data-name="Adsız degrade 226" x1="112.85" y1="377.01999" x2="315.04001" y2="377.01999" gradientUnits="userSpaceOnUse"><stop offset="0" stop-color="#0fa0fa" id="stop231"></stop><stop offset=".5" stop-color="#0fa9fa" id="stop233"></stop><stop offset="1" stop-color="#0fb8fa" id="stop235"></stop></linearGradient><linearGradient id="Adsız_degrade_142" data-name="Adsız degrade 142" x1="340.20999" y1="376.78" x2="577.15997" y2="376.78" gradientUnits="userSpaceOnUse"><stop offset="0" stop-color="#0fb8fa" id="stop238"></stop><stop offset=".31" stop-color="#0dc1fa" id="stop240"></stop><stop offset=".44" stop-color="#0dc7fa" id="stop242"></stop><stop offset=".85" stop-color="#04cffa" id="stop244"></stop><stop offset=".97" stop-color="#05d9fa" id="stop246"></stop></linearGradient></defs><g id="layer1" transform="translate(-36.59401,-146.44975)"><g id="g5721" transform="matrix(0.23024535,0,0,0.23024535,-42.572923,81.482193)"><g id="g285" transform="matrix(0.68889909,0,0,0.68889909,343.83727,282.16544)"><path class="cls-13" d="m 764.21,137.36 c 0,0 154.41,15.57 141.42,183.3 0,0 -20.89,132.17 -147.34,137.44 l -1.98,-28.32 c 0,0 115.45,-2.63 123.58,-132.38 0,0 9.38,-107.81 -115.68,-132.38 z" id="path251" style="fill:url(#Ads%C4%B1z_degrade_222)"></path><path class="cls-12" d="m 396.71,125.5 c 0,0 40.83,-121.18 171.23,-125.13 0,0 147.53,-14.49 200.22,138.31 v 26.74 c 0,0 -19.76,6.19 -27.66,-26.74 0,0 -42.15,-113.28 -167.29,-111.96 0,0 -101.42,-5.27 -152.8,110.65 0,0 -4.84,16.34 -18.23,10.14 0,0 -13.38,-3.56 -5.48,-22 z" id="path253" style="fill:url(#Ads%C4%B1z_degrade_223)"></path><path class="cls-10" d="m 762.89,458.1 h -467.1 c 0,0 -62.3,-5.8 -49.26,-36.26 0,0 5.65,-15.23 29.23,0 -0.41,-1.33 18.55,10.18 41.84,7.98 l 445.3,-0.16 v 28.44 z" id="path255" style="fill:url(#Ads%C4%B1z_degrade_208)"></path><rect class="cls-3" x="340.73001" y="174.24001" width="165.97" height="25.73" rx="8" ry="8" id="rect257" style="fill:url(#Ads%C4%B1z_degrade_52)"></rect><rect class="cls-2" x="526.81" y="174.38" width="79.989998" height="25.73" rx="8" ry="8" id="rect259" style="fill:url(#Ads%C4%B1z_degrade_61)"></rect><rect class="cls-1" x="522.21002" y="236.27" width="39.810001" height="25.73" rx="7.9299998" ry="7.9299998" id="rect261" style="fill:url(#Ads%C4%B1z_degrade_93)"></rect><rect class="cls-17" x="660.84998" y="296.85999" width="48.700001" height="25.73" rx="9.7700005" ry="9.7700005" id="rect263" style="fill:url(#Ads%C4%B1z_degrade_110)"></rect><rect class="cls-16" x="606.65997" y="364.17999" width="48.700001" height="25.73" rx="9.7700005" ry="9.7700005" id="rect265" style="fill:url(#Ads%C4%B1z_degrade_147)"></rect><rect class="cls-5" x="194.52" y="174.02" width="115.34" height="25.73" rx="8" ry="8" id="rect267" style="fill:url(#Ads%C4%B1z_degrade_82)"></rect><ellipse class="cls-9" cx="187.27" cy="187.74001" rx="27" ry="26.67" id="ellipse269"></ellipse><rect class="cls-4" x="33.16" y="235.12" width="473.54001" height="25.73" rx="8" ry="8" id="rect271" style="fill:url(#Ads%C4%B1z_degrade_86)"></rect><rect class="cls-14" x="91.769997" y="296.98001" width="548.72998" height="25.73" rx="8" ry="8" id="rect273" style="fill:url(#Ads%C4%B1z_degrade_101)"></rect><ellipse class="cls-8" cx="85.849998" cy="309.84" rx="27" ry="26.67" id="ellipse275"></ellipse><rect class="cls-11" x="112.85" y="364.16" width="202.19" height="25.73" rx="8" ry="8" id="rect277" style="fill:url(#Ads%C4%B1z_degrade_226)"></rect><ellipse class="cls-8" cx="27" cy="247.99001" rx="27" ry="26.67" id="ellipse279"></ellipse><ellipse class="cls-9" cx="112.19" cy="377.01999" rx="27" ry="26.67" id="ellipse281"></ellipse><rect class="cls-15" x="340.20999" y="363.92001" width="236.96001" height="25.73" rx="8" ry="8" id="rect283" style="fill:url(#Ads%C4%B1z_degrade_142)"></rect></g></g></g></svg>